HIERARCHY
ROOT HipCenter
{
    OFFSET 0.0 0.0 -0.0
    CHANNELS 6 Xposition Yposition Zposition Zrotation Xrotation Yrotation
    JOINT Spine
    {
        OFFSET 0.0 0.12098520994186401 0.0
        CHANNELS 3 Zrotation Xrotation Yrotation
        JOINT ShoulderCenter
        {
            OFFSET 0.0 0.3344818353652954 0.0
            CHANNELS 3 Zrotation Xrotation Yrotation
            JOINT LeftShoulder
            {
                OFFSET 0.19070662558078766 0.0 0.0
                CHANNELS 3 Zrotation Xrotation Yrotation
                JOINT LeftElbow
                {
                    OFFSET 0.2975514531135559 0.0 0.0
                    CHANNELS 3 Zrotation Xrotation Yrotation
                    JOINT LeftWrist
                    {
                        OFFSET 0.2960704565048218 0.0 0.0
                        CHANNELS 3 Zrotation Xrotation Yrotation
                        JOINT LeftHand
                        {
                            OFFSET 0.044070273637771606 0.0 0.0
                            CHANNELS 3 Zrotation Xrotation Yrotation
                            End Site
                            {
                                OFFSET 0.017628110945224762 0.0 0.0
                            }
                        }
                    }
                }
            }
            JOINT RightShoulder
            {
                OFFSET -0.19070662558078766 0.0 0.0
                CHANNELS 3 Zrotation Xrotation Yrotation
                JOINT RightElbow
                {
                    OFFSET -0.2975514531135559 0.0 0.0
                    CHANNELS 3 Zrotation Xrotation Yrotation
                    JOINT RightWrist
                    {
                        OFFSET -0.2960704565048218 0.0 0.0
                        CHANNELS 3 Zrotation Xrotation Yrotation
                        JOINT RightHand
                        {
                            OFFSET -0.044070273637771606 0.0 0.0
                            CHANNELS 3 Zrotation Xrotation Yrotation
                            End Site
                            {
                                OFFSET -0.017628110945224762 0.0 0.0
                            }
                        }
                    }
                }
            }
            End Site
            {
                OFFSET 0.0 0.13379274308681488 0.0
            }
        }
    }
    JOINT LeftHip
    {
        OFFSET 0.13975021243095398 0.0 0.0
        CHANNELS 3 Zrotation Xrotation Yrotation
        JOINT LeftKnee
        {
            OFFSET 0.0 -0.4064898192882538 0.0
            CHANNELS 3 Zrotation Xrotation Yrotation
            JOINT LeftAnkle
            {
                OFFSET 0.0 -0.44778120517730713 0.0
                CHANNELS 3 Zrotation Xrotation Yrotation
                JOINT LeftFoot
                {
                    OFFSET 0.0 -0.10068602859973907 0.0
                    CHANNELS 3 Zrotation Xrotation Yrotation
                    End Site
                    {
                        OFFSET 0.0 0.0 0.04027441143989563
                    }
                }
            }
        }
    }
    JOINT RightHip
    {
        OFFSET -0.13975021243095398 0.0 0.0
        CHANNELS 3 Zrotation Xrotation Yrotation
        JOINT RightKnee
        {
            OFFSET 0.0 -0.4064898192882538 0.0
            CHANNELS 3 Zrotation Xrotation Yrotation
            JOINT RightAnkle
            {
                OFFSET 0.0 -0.44778120517730713 0.0
                CHANNELS 3 Zrotation Xrotation Yrotation
                JOINT RightFoot
                {
                    OFFSET 0.0 -0.10068602859973907 0.0
                    CHANNELS 3 Zrotation Xrotation Yrotation
                    End Site
                    {
                        OFFSET 0.0 0.0 0.04027441143989563
                    }
                }
            }
        }
    }
}
MOTION
Frames: 4
Frame Time: 0.03333333333333333
0.6320000290870667 -0.0949999988079071 0.628000020980835 10.813888248411404 41.44172531801984 -12.515318703092536 -1.765666324266057 0.20364285689641162 -0.0016334772781532176 5.245723029999996e-07 1.6491757080302145e-06 2.286812129567142 101.13394369595305 11.525099636451724 157.30401779109016 4.1837148830819636e-05 4.025878732554761e-05 0.30455990139220135 -2.1736698767553506e-06 22.818547438195374 18.63244316791224 3.1805546814635168e-15 -1.5902773407317584e-15 3.1805546814635168e-15 -137.28629716030179 55.12427572545842 -126.83922579519171 6.016018823751594e-07 -7.68312009938593e-06 -12.114475610938412 179.9999941892007 -46.669752497984604 138.6271734015421 -3.1805546814635168e-15 -3.1805546814635168e-15 -8.827812596100317e-32 158.00762024152982 -70.64808183791597 -142.887673463073 89.6282848933816 28.699501953930913 -145.12260148946734 99.4290160094594 -40.47800909463707 156.09539096033484 6.361109362927033e-15 6.361109362927033e-15 -3.1805546814635168e-15 -148.42161520774224 -70.19422428277993 154.3180600489002 -87.77333307611084 30.70444620755663 145.3145968535354 -100.1216279229316 -32.44681435097044 -158.63311309540566 -6.3611093629270335e-15 8.827812596100317e-32 -1.5902773407317584e-15
0.6359999775886536 -0.09399999678134918 0.6269999742507935 9.64802313081194 33.05065934720318 -12.16313181062977 -1.83090375681679 0.8110377945380467 -0.003616682603670341 -1.329807335448734e-07 1.816069706393241e-06 1.1320872703600908 96.40014949222892 -0.3261267534598007 -177.6680803704162 3.331159558333454e-07 8.002859779414626e-06 5.906993760946031 -2.2619701614659e-06 11.15717079545545 21.309294189593444 5.168401357378215e-15 -1.5902773407317584e-15 1.5902773407317584e-15 -94.99226568550851 40.12111645262518 -176.31586413084324 3.499321254666679e-06 -1.5987519207331281e-06 -16.21853114747364 179.99999552941986 -37.69840716618772 134.62119430236257 -6.3611093629270335e-15 -6.3611093629270335e-15 -3.1805546814635168e-15 141.82150902534752 -79.35066478655948 -162.77349474661332 89.34434512794448 32.54472724203897 -147.68770334418343 96.82764979344427 -37.196494024727976 150.39651741614713 0.0 0.0 0.0 -123.88002576586413 -77.3200869770201 -177.45224881445176 -86.5541172864224 33.32410548312005 148.27034052129082 -99.53383266316902 -30.715583819013943 -155.44669567351286 0.0 0.0 1.5902773407317582e-15
0.6439999938011169 -0.08900000154972076 0.6159999966621399 9.37706314659523 23.484093722344827 -12.945848191708734 -2.6736332440196118 0.29295721120519735 -0.0026103964551383407 -6.435438985709528e-08 -7.542170564728253e-07 0.8612347773339394 99.2909616457107 -8.278532296360588 -151.62141554507426 -4.3202390471816493e-07 -1.0738036300928721e-06 15.954071607357495 1.4024332578975872e-06 0.847904791574332 26.474307086928647 1.5902773407317584e-15 0.0 0.0 -86.29368347738219 14.14608791044034 156.89114917704396 -4.872278485213801e-06 1.2180884165717247e-06 -23.373675291121284 -179.99999726429465 -23.274822209646974 135.05016401151843 -6.3611093629270335e-15 -1.5902773407317584e-15 -8.827812596100317e-32 65.29739156755296 -83.0387979843049 115.77080880896231 87.01550781554222 38.382707911836974 -149.70762088839948 94.61992217342898 -34.47743352527495 143.19445818298902 -3.1805546814635176e-15 -7.951386703658793e-15 3.1805546814635176e-15 -72.4804930720113 -79.30235154016344 -117.72800870434916 -84.03712229151336 39.42274197851262 149.06563374844822 -97.17220068828075 -29.474041128485787 -148.8894457513844 -1.5902773407317584e-15 4.4139062980501586e-32 -3.1805546814635168e-15
0.6499999761581421 -0.0860000029206276 0.6010000109672546 7.853299633163205 15.284314833836381 -13.929247435602164 -1.667293840998014 -1.3339170057914613 0.02989044851636016 3.450443142916765e-08 -5.245746965211443e-07 1.329098148096628 106.37039769169057 -10.045063970882266 -125.86130349053511 7.419757122129595e-06 6.190948995883424e-07 29.023505686409116 -2.5498110743736833e-06 -11.356176054121189 27.079729991490275 -3.531125038440127e-31 6.3611093629270335e-15 6.3611093629270335e-15 -90.78199250436494 -2.33508274387615 131.55469937605838 -5.584721337933548e-06 -6.793337785352189e-08 -29.59611176939249 179.99999906571338 -14.215868198517025 137.2401521510592 0.0 0.0 0.0 30.346303116091576 -75.33737057570126 73.24610082653969 83.64573124141037 45.9708571293112 -149.98614170645695 91.1484341350947 -30.995477793404195 134.63859739502755 1.1034765745125397e-32 -7.951386703658794e-16 1.5902773407317588e-15 -36.89273479623356 -74.37853368319229 -72.87200799619738 -79.92891363221713 47.79916223759934 146.38234347473596 -94.02211208039301 -30.121633497920076 -139.77363059648033 -4.770832022195275e-15 5.565970692561154e-15 -1.5902773407317582e-15
